<svg xmlns="http://www.w3.org/2000/svg" viewBox="35 158 671.2099914550781 230"> <svg xmlns="http://www.w3.org/2000/svg" id="Layer_1" viewBox="33.8837890625 28.01680564880371 131.12039184570312 132.49160766601562" height="90" width="89.06859976731195" y="228" x="105" preserveAspectRatio="xMinYMin" style="overflow: visible;"><path class="cls-1" d="m99.38,45.7c-9.56-9.38-22.65-14.41-35.61-11.77-3.88.8-7.92,1.93-11.02,4.44-9.48,7.92-10.18,22.57-10.04,34.23.55,21.91,6.9,43.41,17.14,62.7,3.49,6.2,8.78,16.32,15.59,18.72.9.2,1.42.26,2.43,0,3.11-.67,6.22-1.75,8.85-3.5,3.83-2.36,5.33-6.79,5.84-11.08.49,4.73-.51,9.66-4.29,12.98-2.65,2.51-5.94,4.09-9.3,5.34-1.14.47-2.93.78-4.25.57-9.07-1.48-16.3-12.36-21-19.47-14.89-23.78-22.65-52.23-18.9-80.28,1.53-9.68,5.22-20.02,13.87-25.87,4.24-2.88,9.28-4,14.27-4.5,4.82-.49,9.73-.04,14.34,1.26,9.01,2.64,16.97,8.49,22.08,16.23h0Z" style="fill: #40a7ff; fill-opacity: 1;"></path><path class="cls-1" d="m87.52,54.3c4.69-.83,8.74-3.4,12.42-6.24,7.53-5.81,14.13-12.99,23.23-16.68,9.25-3.81,20.94-3.06,29.04,3.15,11.96,9.97,13.03,27.26,12.76,41.65-.69,19.42-5.7,38.59-14.58,55.9-5.47,10.25-13.7,24.53-25.8,27.99-19.12,3.68-33.39-16.61-41.35-30.83-4.46-8.71-9.2-17.68-9.83-27.66-.53-8.44,7.12-16.96,15.78-12.87,7.72,3.68,13.02,12.38,14.38,20.58.3,3.64-4.33,4.97-6.71,2.7-1.09-.99-1.76-2.5-1.56-3.96,1.95-7.4,11.26-18.99,18.72-21.27,4.89-1.48,10.61,1.5,12.06,6.4,1.58,4.67.56,9.74-1.35,14.12-7.14,15.74-25.21,20.96-37.46,31.65-1.64,1.58-3.41,3.63-3.02,6.07-.54-4.61,5.32-8.07,8.53-10.5,11.25-7.91,25.36-14.32,31.2-27.54,1.76-4.18,2.64-9.09,1.08-13.42-1.4-4.33-6.35-6.79-10.65-5.47-4.3,1.46-7.7,5.02-10.6,8.45-2.72,3.51-5.67,7.44-6.77,11.77-.08.43.08.86.24,1.25.93,2.51,5.2,2.3,4.22-.84-1.75-7.19-6.41-14.5-13.34-17.45-6.54-2.74-11.58,3.94-10.49,10.07.53,4.17,2.49,8.39,4.58,12.4,4.34,8,9.55,15.77,15.37,22.72,6.16,7.02,14.98,16.55,24.84,15.05,5.62-1.68,9.72-6.84,13.4-11.72,7.76-11.13,13.63-23.83,17.49-36.86,5.16-18.66,12.49-62.53-12.73-68.8-5.34-1.46-10.99-1.42-16.3.41-8.79,2.96-15.89,9.56-23.65,14.62-3.98,2.55-8.41,4.8-13.16,5.19h0Z" style="fill: #40a7ff; fill-opacity: 1;"></path></svg> <svg x="225" y="233.52499961853027" viewBox="5.150000095367432 4.489999771118164 411.2099914550781 46.310001373291016" height="46.310001373291016" width="411.2099914550781" style="overflow: visible;"><g fill="#3d3d3d" style=""><path d="M24.79 43.04L6.58 43.04Q5.51 43.04 5.33 42.87Q5.15 42.69 5.15 41.62L5.15 41.62L5.15 6.48Q5.15 5.51 5.33 5.33Q5.51 5.15 6.48 5.15L6.48 5.15L24.17 5.15Q24.89 5.15 24.89 5.87L24.89 5.87L24.89 7.65Q24.89 8.36 24.17 8.36L24.17 8.36L8.87 8.36L8.87 21.83L23.41 21.83Q24.12 21.83 24.12 22.54L24.12 22.54L24.12 24.38Q24.12 25.09 23.41 25.09L23.41 25.09L8.87 25.09L8.87 39.78L24.79 39.78Q25.50 39.78 25.50 40.49L25.50 40.49L25.50 42.33Q25.50 43.04 24.79 43.04L24.79 43.04ZM34.17 42.28L34.17 21.88Q34.17 19.74 34.12 18.49Q34.07 17.24 33.97 16.12L33.97 16.12Q33.97 15.40 34.68 15.40L34.68 15.40L36.57 15.40Q37.28 15.40 37.28 16.12L37.28 16.12L37.28 18.87Q38.45 16.98 40.44 15.89Q42.43 14.79 45.34 14.79L45.34 14.79Q48.40 14.79 50.69 16.29Q52.99 17.80 53.50 20.71L53.50 20.71Q54.57 17.80 56.94 16.29Q59.31 14.79 62.42 14.79L62.42 14.79Q64.41 14.79 66.02 15.50Q67.63 16.22 68.77 17.47Q69.92 18.72 70.53 20.40Q71.15 22.08 71.15 23.97L71.15 23.97L71.15 42.28Q71.15 42.99 70.43 42.99L70.43 42.99L68.49 42.99Q67.78 42.99 67.78 42.33L67.78 42.33L67.78 24.68Q67.78 17.70 61.91 17.70L61.91 17.70Q60.13 17.70 58.73 18.49Q57.32 19.28 56.33 20.66Q55.34 22.03 54.85 23.87Q54.37 25.70 54.42 27.74L54.42 27.74L54.42 42.28Q54.42 42.99 53.70 42.99L53.70 42.99L51.66 42.99Q50.95 42.99 50.95 42.28L50.95 42.28L50.95 24.68Q50.95 17.70 45.03 17.70L45.03 17.70Q41.56 17.70 39.58 19.94Q37.59 22.19 37.59 25.86L37.59 25.86L37.59 42.28Q37.59 42.99 36.87 42.99L36.87 42.99L34.88 42.99Q34.17 42.99 34.17 42.28L34.17 42.28ZM80.48 42.28L80.48 21.88Q80.48 19.74 80.43 18.49Q80.38 17.24 80.27 16.12L80.27 16.12Q80.27 15.40 80.99 15.40L80.99 15.40L82.88 15.40Q83.59 15.40 83.59 16.12L83.59 16.12L83.59 18.87Q84.76 16.98 86.75 15.89Q88.74 14.79 91.65 14.79L91.65 14.79Q94.71 14.79 97.00 16.29Q99.30 17.80 99.81 20.71L99.81 20.71Q100.88 17.80 103.25 16.29Q105.62 14.79 108.73 14.79L108.73 14.79Q110.72 14.79 112.33 15.50Q113.93 16.22 115.08 17.47Q116.23 18.72 116.84 20.40Q117.45 22.08 117.45 23.97L117.45 23.97L117.45 42.28Q117.45 42.99 116.74 42.99L116.74 42.99L114.80 42.99Q114.09 42.99 114.09 42.33L114.09 42.33L114.09 24.68Q114.09 17.70 108.22 17.70L108.22 17.70Q106.44 17.70 105.03 18.49Q103.63 19.28 102.64 20.66Q101.64 22.03 101.16 23.87Q100.67 25.70 100.72 27.74L100.72 27.74L100.72 42.28Q100.72 42.99 100.01 42.99L100.01 42.99L97.97 42.99Q97.26 42.99 97.26 42.28L97.26 42.28L97.26 24.68Q97.26 17.70 91.34 17.70L91.34 17.70Q87.87 17.70 85.88 19.94Q83.89 22.19 83.89 25.86L83.89 25.86L83.89 42.28Q83.89 42.99 83.18 42.99L83.18 42.99L81.19 42.99Q80.48 42.99 80.48 42.28L80.48 42.28ZM142.44 30.35L142.44 28.61L141.47 28.61Q138.62 28.51 136.40 28.84Q134.18 29.17 132.70 29.73L132.70 29.73Q130.56 30.50 129.49 32.00Q128.42 33.51 128.42 35.60L128.42 35.60Q128.42 36.87 128.83 37.97Q129.23 39.07 130.10 39.68L130.10 39.68Q131.63 40.90 134.18 40.90L134.18 40.90Q135.97 40.90 137.47 40.19Q138.97 39.47 140.10 38.15Q141.22 36.82 141.83 34.86Q142.44 32.90 142.44 30.35L142.44 30.35ZM127.91 19.69L127.91 19.69Q127.65 19.84 127.42 19.76Q127.19 19.69 127.19 19.43L127.19 19.43L127.19 17.49Q127.19 16.78 127.91 16.42L127.91 16.42Q129.69 15.45 131.71 15.07Q133.72 14.69 136.12 14.69L136.12 14.69Q141.22 14.69 143.56 17.11Q145.91 19.53 145.91 24.43L145.91 24.43L145.91 37.23Q145.91 38.76 145.96 39.96Q146.01 41.16 146.11 42.28L146.11 42.28Q146.11 42.99 145.40 42.99L145.40 42.99L143.56 42.99Q142.85 42.99 142.85 42.28L142.85 42.28L142.85 38.35Q141.78 40.95 139.26 42.38Q136.73 43.81 133.77 43.81L133.77 43.81Q128.62 43.81 126.22 40.80L126.22 40.80Q125.41 39.78 125.00 38.43Q124.59 37.08 124.59 35.75L124.59 35.75Q124.59 32.64 126.05 30.40Q127.50 28.15 130.51 27.03L130.51 27.03Q134.18 25.70 141.78 25.70L141.78 25.70L142.44 25.70L142.44 24.17Q142.44 20.96 140.99 19.28Q139.54 17.60 136.12 17.60L136.12 17.60Q133.82 17.60 131.78 18.08Q129.74 18.56 127.91 19.69ZM172.63 39.78L187.27 39.78Q187.99 39.78 187.99 40.49L187.99 40.49L187.99 42.28Q187.99 42.99 187.27 42.99L187.27 42.99L170.75 42.99Q170.03 42.99 169.65 42.97Q169.27 42.94 169.09 42.76Q168.91 42.59 168.89 42.18Q168.86 41.77 168.86 41.06L168.86 41.06L168.86 5.97Q168.86 5.25 169.57 5.25L169.57 5.25L171.92 5.25Q172.63 5.25 172.63 5.97L172.63 5.97L172.63 39.78ZM213.69 29.22L213.69 29.22Q213.69 26.83 213.05 24.74Q212.41 22.64 211.29 21.01L211.29 21.01Q208.64 17.75 204.41 17.75L204.41 17.75Q202.27 17.75 200.56 18.59Q198.85 19.43 197.52 21.01L197.52 21.01Q196.35 22.64 195.71 24.74Q195.07 26.83 195.07 29.22L195.07 29.22Q195.07 31.67 195.71 33.76Q196.35 35.85 197.52 37.43L197.52 37.43Q200.23 40.75 204.41 40.75L204.41 40.75Q206.55 40.75 208.26 39.88Q209.97 39.02 211.29 37.43L211.29 37.43Q212.41 35.85 213.05 33.76Q213.69 31.67 213.69 29.22ZM217.46 29.22L217.46 29.22Q217.46 32.23 216.60 34.81Q215.73 37.38 214.30 39.32L214.30 39.32Q212.52 41.46 210.04 42.64Q207.57 43.81 204.41 43.81L204.41 43.81Q201.25 43.81 198.75 42.64Q196.25 41.46 194.46 39.32L194.46 39.32Q193.03 37.38 192.19 34.81Q191.35 32.23 191.35 29.22L191.35 29.22Q191.35 23.05 194.46 19.13L194.46 19.13Q198.03 14.69 204.41 14.69L204.41 14.69Q207.62 14.69 210.07 15.78Q212.52 16.88 214.30 19.13L214.30 19.13Q217.46 23.15 217.46 29.22ZM243.47 28.82L243.47 28.82Q243.47 26.72 243.07 24.76Q242.66 22.80 241.69 21.27Q240.72 19.74 239.19 18.79Q237.66 17.85 235.36 17.85L235.36 17.85Q233.27 17.85 231.74 18.72Q230.21 19.58 229.22 21.09Q228.22 22.59 227.71 24.58Q227.20 26.57 227.20 28.82L227.20 28.82Q227.20 34.73 229.42 37.77Q231.64 40.80 235.36 40.80L235.36 40.80Q237.30 40.80 238.81 39.96Q240.31 39.12 241.36 37.54Q242.40 35.96 242.94 33.76Q243.47 31.57 243.47 28.82ZM223.79 50.08L223.79 16.12Q223.79 15.40 224.50 15.40L224.50 15.40L226.44 15.40Q227.15 15.40 227.15 16.12L227.15 16.12L226.90 19.94Q227.92 17.70 230.34 16.32Q232.76 14.94 235.98 14.94L235.98 14.94Q238.99 14.94 241.10 16.01Q243.22 17.09 244.57 18.95Q245.92 20.81 246.56 23.36Q247.20 25.91 247.20 28.82L247.20 28.82Q247.20 31.98 246.46 34.68Q245.72 37.38 244.32 39.37Q242.91 41.36 240.82 42.51Q238.73 43.66 235.98 43.66L235.98 43.66Q232.87 43.66 230.62 42.46Q228.38 41.26 227.20 39.12L227.20 39.12L227.20 50.08Q227.20 50.80 226.49 50.80L226.49 50.80L224.55 50.80Q224.25 50.80 224.02 50.59Q223.79 50.39 223.79 50.08L223.79 50.08ZM257.04 27.29L272.34 27.29Q272.34 25.19 271.93 23.56Q271.52 21.93 270.66 20.60L270.66 20.60Q268.77 17.60 265.20 17.60L265.20 17.60Q261.53 17.60 259.23 20.66L259.23 20.66Q258.31 22.03 257.70 23.82Q257.09 25.60 257.04 27.29L257.04 27.29ZM274.28 30.19L257.04 30.19Q256.99 32.74 257.63 34.71Q258.26 36.67 259.49 38.00Q260.71 39.32 262.42 40.04Q264.13 40.75 266.22 40.75L266.22 40.75Q268.26 40.75 270.05 40.37Q271.83 39.98 273.36 39.12L273.36 39.12Q274.02 38.81 274.02 39.47L274.02 39.47L274.02 41.77Q274.02 42.23 273.46 42.48L273.46 42.48Q271.78 43.15 269.94 43.48Q268.11 43.81 265.96 43.81L265.96 43.81Q259.69 43.81 256.48 40.16Q253.27 36.52 253.27 29.17L253.27 29.17Q253.27 22.70 256.48 18.72L256.48 18.72Q259.84 14.69 265.00 14.69L265.00 14.69Q267.85 14.69 269.94 15.71Q272.03 16.73 273.51 18.77L273.51 18.77Q276.11 22.39 276.11 28.46L276.11 28.46Q276.11 29.12 276.09 29.48Q276.06 29.84 275.91 29.99Q275.76 30.14 275.37 30.17Q274.99 30.19 274.28 30.19L274.28 30.19ZM300.64 42.99L281.98 42.99Q280.91 42.99 280.73 42.81Q280.55 42.64 280.55 41.57L280.55 41.57L280.55 40.75Q280.55 40.09 280.96 39.63L280.96 39.63L297.38 18.36L281.93 18.36Q281.21 18.36 281.21 17.65L281.21 17.65L281.21 16.12Q281.21 15.40 281.93 15.40L281.93 15.40L299.93 15.40Q301.00 15.40 301.18 15.58Q301.36 15.76 301.36 16.83L301.36 16.83L301.36 17.75Q301.36 18.41 301.00 18.82L301.00 18.82L284.53 40.14L300.64 40.14Q301.36 40.14 301.36 40.85L301.36 40.85L301.36 42.28Q301.36 42.99 300.64 42.99L300.64 42.99ZM346.85 23.82L346.85 23.82Q346.85 15.71 342.36 11.83L342.36 11.83Q338.38 8.41 331.45 8.41L331.45 8.41L325.94 8.41L325.94 39.78L329.05 39.78Q346.85 39.78 346.85 23.82ZM350.57 24.02L350.57 24.02Q350.57 28.76 348.94 32.49Q347.31 36.21 344.40 38.66L344.40 38.66Q341.65 40.75 337.72 41.87Q333.80 42.99 328.85 42.99L328.85 42.99L323.60 42.99Q322.52 42.99 322.35 42.81Q322.17 42.64 322.17 41.57L322.17 41.57L322.17 6.68Q322.17 5.61 322.35 5.43Q322.52 5.25 323.60 5.25L323.60 5.25L331.60 5.25Q341.29 5.25 346.19 10.51L346.19 10.51Q350.57 15.35 350.57 24.02ZM383.93 23.82L383.93 23.82Q383.93 15.71 379.44 11.83L379.44 11.83Q375.46 8.41 368.53 8.41L368.53 8.41L363.02 8.41L363.02 39.78L366.13 39.78Q383.93 39.78 383.93 23.82ZM387.65 24.02L387.65 24.02Q387.65 28.76 386.02 32.49Q384.39 36.21 381.48 38.66L381.48 38.66Q378.73 40.75 374.80 41.87Q370.87 42.99 365.93 42.99L365.93 42.99L360.67 42.99Q359.60 42.99 359.42 42.81Q359.24 42.64 359.24 41.57L359.24 41.57L359.24 6.68Q359.24 5.61 359.42 5.43Q359.60 5.25 360.67 5.25L360.67 5.25L368.68 5.25Q378.37 5.25 383.26 10.51L383.26 10.51Q387.65 15.35 387.65 24.02ZM395.86 42.48L395.86 42.48Q395.05 42.23 395.20 41.57L395.20 41.57L395.40 39.22Q395.50 38.81 395.73 38.66Q395.96 38.51 396.27 38.71L396.27 38.71Q398.06 39.68 399.87 40.11Q401.68 40.55 404.02 40.55L404.02 40.55Q407.75 40.55 410.12 38.51Q412.49 36.47 412.49 32.74L412.49 32.74Q412.49 31.26 411.34 29.78Q410.19 28.31 408.15 26.98L408.15 26.98Q406.37 25.86 404.12 24.63Q401.88 23.41 399.84 21.96Q397.80 20.50 396.42 18.69Q395.05 16.88 395.05 14.48L395.05 14.48Q395.05 12.04 396.07 10.17Q397.09 8.31 398.79 7.06Q400.50 5.81 402.70 5.15Q404.89 4.49 407.18 4.49L407.18 4.49Q409.17 4.49 410.70 4.72Q412.23 4.95 414.02 5.51L414.02 5.51Q414.78 5.76 414.63 6.43L414.63 6.43L414.22 8.41Q414.07 9.28 413.36 8.87L413.36 8.87Q411.93 8.21 410.58 7.98Q409.22 7.75 407.13 7.75L407.13 7.75Q405.45 7.75 403.95 8.16Q402.44 8.57 401.34 9.38Q400.25 10.20 399.58 11.42Q398.92 12.65 398.92 14.33L398.92 14.33Q398.92 15.66 399.81 16.83Q400.71 18.00 402.01 19.02Q403.31 20.04 404.81 20.88Q406.32 21.73 407.54 22.44L407.54 22.44Q409.22 23.41 410.81 24.43Q412.39 25.45 413.61 26.72Q414.83 28.00 415.60 29.53Q416.36 31.06 416.36 33.05L416.36 33.05Q416.36 35.60 415.32 37.59Q414.27 39.58 412.54 40.95Q410.81 42.33 408.54 43.07Q406.27 43.81 403.82 43.81L403.82 43.81Q401.57 43.81 399.81 43.50Q398.06 43.20 395.86 42.48Z" transform="translate(0, 0)"></path></g></svg></svg>