<svg xmlns="http://www.w3.org/2000/svg" viewBox="-1.419984741210925 120.65935516357422 577.8399963378906 333.6812934875488"> <svg xmlns="http://www.w3.org/2000/svg" id="Layer_1" viewBox="33.8837890625 28.01680564880371 131.12039184570312 132.49160766601562" height="115" width="113.80981808624743" y="190.65935516357422" x="230.5944348289466" preserveAspectRatio="xMinYMin" style="overflow: visible;"><path class="cls-1" d="m99.38,45.7c-9.56-9.38-22.65-14.41-35.61-11.77-3.88.8-7.92,1.93-11.02,4.44-9.48,7.92-10.18,22.57-10.04,34.23.55,21.91,6.9,43.41,17.14,62.7,3.49,6.2,8.78,16.32,15.59,18.72.9.2,1.42.26,2.43,0,3.11-.67,6.22-1.75,8.85-3.5,3.83-2.36,5.33-6.79,5.84-11.08.49,4.73-.51,9.66-4.29,12.98-2.65,2.51-5.94,4.09-9.3,5.34-1.14.47-2.93.78-4.25.57-9.07-1.48-16.3-12.36-21-19.47-14.89-23.78-22.65-52.23-18.9-80.28,1.53-9.68,5.22-20.02,13.87-25.87,4.24-2.88,9.28-4,14.27-4.5,4.82-.49,9.73-.04,14.34,1.26,9.01,2.64,16.97,8.49,22.08,16.23h0Z" style="fill: #40A7FF; fill-opacity: 1;"></path><path class="cls-1" d="m87.52,54.3c4.69-.83,8.74-3.4,12.42-6.24,7.53-5.81,14.13-12.99,23.23-16.68,9.25-3.81,20.94-3.06,29.04,3.15,11.96,9.97,13.03,27.26,12.76,41.65-.69,19.42-5.7,38.59-14.58,55.9-5.47,10.25-13.7,24.53-25.8,27.99-19.12,3.68-33.39-16.61-41.35-30.83-4.46-8.71-9.2-17.68-9.83-27.66-.53-8.44,7.12-16.96,15.78-12.87,7.72,3.68,13.02,12.38,14.38,20.58.3,3.64-4.33,4.97-6.71,2.7-1.09-.99-1.76-2.5-1.56-3.96,1.95-7.4,11.26-18.99,18.72-21.27,4.89-1.48,10.61,1.5,12.06,6.4,1.58,4.67.56,9.74-1.35,14.12-7.14,15.74-25.21,20.96-37.46,31.65-1.64,1.58-3.41,3.63-3.02,6.07-.54-4.61,5.32-8.07,8.53-10.5,11.25-7.91,25.36-14.32,31.2-27.54,1.76-4.18,2.64-9.09,1.08-13.42-1.4-4.33-6.35-6.79-10.65-5.47-4.3,1.46-7.7,5.02-10.6,8.45-2.72,3.51-5.67,7.44-6.77,11.77-.08.43.08.86.24,1.25.93,2.51,5.2,2.3,4.22-.84-1.75-7.19-6.41-14.5-13.34-17.45-6.54-2.74-11.58,3.94-10.49,10.07.53,4.17,2.49,8.39,4.58,12.4,4.34,8,9.55,15.77,15.37,22.72,6.16,7.02,14.98,16.55,24.84,15.05,5.62-1.68,9.72-6.84,13.4-11.72,7.76-11.13,13.63-23.83,17.49-36.86,5.16-18.66,12.49-62.53-12.73-68.8-5.34-1.46-10.99-1.42-16.3.41-8.79,2.96-15.89,9.56-23.65,14.62-3.98,2.55-8.41,4.8-13.16,5.19h0Z" style="fill: #40A7FF; fill-opacity: 1;"></path></svg> <svg y="334.16065216064453" viewBox="4.159999847412109 17.84000015258789 437.8399963378906 50.179996490478516" x="68.58001525878908" height="50.179996490478516" width="437.8399963378906" style="overflow: visible;"><g fill="#3D3D3D" fill-opacity="1" style=""><path d="M23.14 21.22L7.80 21.22L7.80 34.79L21.58 34.79L21.58 37.80L7.80 37.80L7.80 51.58L23.14 51.58L23.14 54.60L4.16 54.60L4.16 18.20L23.14 18.20L23.14 21.22ZM64.12 25.69Q69.11 25.69 72.25 28.83Q75.40 31.98 75.40 37.96L75.40 37.96L75.40 54.60L71.81 54.60L71.81 38.38Q71.81 33.75 69.58 31.30Q67.34 28.86 63.49 28.86L63.49 28.86Q59.49 28.86 57.10 31.51Q54.70 34.16 54.70 39.21L54.70 39.21L54.70 54.60L51.12 54.60L51.12 38.38Q51.12 33.75 48.88 31.30Q46.64 28.86 42.74 28.86L42.74 28.86Q38.74 28.86 36.35 31.51Q33.96 34.16 33.96 39.21L33.96 39.21L33.96 54.60L30.32 54.60L30.32 26.21L33.96 26.21L33.96 31.10Q35.31 28.44 37.80 27.07Q40.30 25.69 43.37 25.69L43.37 25.69Q47.06 25.69 49.84 27.46Q52.62 29.22 53.87 32.66L53.87 32.66Q55.02 29.28 57.80 27.48Q60.58 25.69 64.12 25.69L64.12 25.69ZM117.26 25.69Q122.25 25.69 125.40 28.83Q128.54 31.98 128.54 37.96L128.54 37.96L128.54 54.60L124.96 54.60L124.96 38.38Q124.96 33.75 122.72 31.30Q120.48 28.86 116.64 28.86L116.64 28.86Q112.63 28.86 110.24 31.51Q107.85 34.16 107.85 39.21L107.85 39.21L107.85 54.60L104.26 54.60L104.26 38.38Q104.26 33.75 102.02 31.30Q99.79 28.86 95.89 28.86L95.89 28.86Q91.88 28.86 89.49 31.51Q87.10 34.16 87.10 39.21L87.10 39.21L87.10 54.60L83.46 54.60L83.46 26.21L87.10 26.21L87.10 31.10Q88.45 28.44 90.95 27.07Q93.44 25.69 96.51 25.69L96.51 25.69Q100.20 25.69 102.99 27.46Q105.77 29.22 107.02 32.66L107.02 32.66Q108.16 29.28 110.94 27.48Q113.72 25.69 117.26 25.69L117.26 25.69ZM134.94 40.35Q134.94 35.98 136.68 32.68Q138.42 29.38 141.52 27.59Q144.61 25.79 148.51 25.79L148.51 25.79Q152.57 25.79 155.51 27.66Q158.44 29.54 159.74 32.45L159.74 32.45L159.74 26.21L163.38 26.21L163.38 54.60L159.74 54.60L159.74 48.31Q158.39 51.22 155.45 53.12Q152.52 55.02 148.46 55.02L148.46 55.02Q144.61 55.02 141.52 53.20Q138.42 51.38 136.68 48.05Q134.94 44.72 134.94 40.35L134.94 40.35ZM159.74 40.40Q159.74 36.97 158.34 34.37Q156.94 31.77 154.52 30.37Q152.10 28.96 149.19 28.96L149.19 28.96Q146.17 28.96 143.78 30.32Q141.39 31.67 140.01 34.24Q138.63 36.82 138.63 40.35L138.63 40.35Q138.63 43.84 140.01 46.46Q141.39 49.09 143.78 50.47Q146.17 51.84 149.19 51.84L149.19 51.84Q152.10 51.84 154.52 50.44Q156.94 49.04 158.34 46.44Q159.74 43.84 159.74 40.40L159.74 40.40ZM189.59 18.25L189.59 51.64L202.64 51.64L202.64 54.60L185.95 54.60L185.95 18.25L189.59 18.25ZM220.27 55.02Q216.27 55.02 213.07 53.22Q209.87 51.43 208.03 48.13Q206.18 44.82 206.18 40.40L206.18 40.40Q206.18 35.98 208.05 32.68Q209.92 29.38 213.15 27.59Q216.37 25.79 220.38 25.79L220.38 25.79Q224.38 25.79 227.63 27.59Q230.88 29.38 232.73 32.68Q234.57 35.98 234.57 40.40L234.57 40.40Q234.57 44.77 232.70 48.10Q230.83 51.43 227.55 53.22Q224.28 55.02 220.27 55.02L220.27 55.02ZM220.27 51.84Q223.08 51.84 225.47 50.57Q227.86 49.30 229.35 46.72Q230.83 44.15 230.83 40.40L230.83 40.40Q230.83 36.66 229.37 34.09Q227.92 31.51 225.52 30.24Q223.13 28.96 220.32 28.96L220.32 28.96Q217.52 28.96 215.12 30.24Q212.73 31.51 211.30 34.09Q209.87 36.66 209.87 40.40L209.87 40.40Q209.87 44.15 211.30 46.72Q212.73 49.30 215.10 50.57Q217.46 51.84 220.27 51.84L220.27 51.84ZM244.82 32.45Q246.17 29.59 249.11 27.69Q252.04 25.79 256.10 25.79L256.10 25.79Q259.95 25.79 263.04 27.59Q266.14 29.38 267.88 32.68Q269.62 35.98 269.62 40.35L269.62 40.35Q269.62 44.72 267.88 48.05Q266.14 51.38 263.04 53.20Q259.95 55.02 256.10 55.02L256.10 55.02Q252.10 55.02 249.13 53.12Q246.17 51.22 244.82 48.36L244.82 48.36L244.82 68.02L241.23 68.02L241.23 26.21L244.82 26.21L244.82 32.45ZM265.93 40.35Q265.93 36.82 264.55 34.24Q263.17 31.67 260.78 30.32Q258.39 28.96 255.37 28.96L255.37 28.96Q252.46 28.96 250.04 30.37Q247.62 31.77 246.22 34.37Q244.82 36.97 244.82 40.40L244.82 40.40Q244.82 43.84 246.22 46.44Q247.62 49.04 250.04 50.44Q252.46 51.84 255.37 51.84L255.37 51.84Q258.39 51.84 260.78 50.47Q263.17 49.09 264.55 46.46Q265.93 43.84 265.93 40.35L265.93 40.35ZM302.02 38.95Q302.02 40.82 301.91 41.81L301.91 41.81L278.36 41.81Q278.51 45.03 279.92 47.32Q281.32 49.61 283.61 50.78Q285.90 51.95 288.60 51.95L288.60 51.95Q292.14 51.95 294.55 50.23Q296.97 48.52 297.75 45.60L297.75 45.60L301.60 45.60Q300.56 49.76 297.15 52.39Q293.75 55.02 288.60 55.02L288.60 55.02Q284.60 55.02 281.42 53.22Q278.25 51.43 276.46 48.13Q274.66 44.82 274.66 40.40L274.66 40.40Q274.66 35.98 276.43 32.66Q278.20 29.33 281.37 27.56Q284.54 25.79 288.60 25.79L288.60 25.79Q292.66 25.79 295.70 27.56Q298.74 29.33 300.38 32.32Q302.02 35.31 302.02 38.95L302.02 38.95ZM298.32 38.84Q298.38 35.67 297.05 33.44Q295.72 31.20 293.44 30.06Q291.15 28.91 288.44 28.91L288.44 28.91Q284.39 28.91 281.53 31.51Q278.67 34.11 278.36 38.84L278.36 38.84L298.32 38.84ZM325.21 29.22L310.60 51.58L325.47 51.58L325.47 54.60L306.44 54.60L306.44 51.58L321.05 29.22L306.70 29.22L306.70 26.21L325.21 26.21L325.21 29.22ZM356.62 18.25Q362.65 18.25 366.96 20.44Q371.28 22.62 373.57 26.73Q375.86 30.84 375.86 36.50L375.86 36.50Q375.86 42.12 373.57 46.20Q371.28 50.28 366.96 52.44Q362.65 54.60 356.62 54.60L356.62 54.60L345.85 54.60L345.85 18.25L356.62 18.25ZM356.62 51.58Q364.21 51.58 368.19 47.61Q372.16 43.63 372.16 36.50L372.16 36.50Q372.16 29.33 368.19 25.30Q364.21 21.27 356.62 21.27L356.62 21.27L349.49 21.27L349.49 51.58L356.62 51.58ZM393.33 18.25Q399.36 18.25 403.68 20.44Q407.99 22.62 410.28 26.73Q412.57 30.84 412.57 36.50L412.57 36.50Q412.57 42.12 410.28 46.20Q407.99 50.28 403.68 52.44Q399.36 54.60 393.33 54.60L393.33 54.60L382.56 54.60L382.56 18.25L393.33 18.25ZM393.33 51.58Q400.92 51.58 404.90 47.61Q408.88 43.63 408.88 36.50L408.88 36.50Q408.88 29.33 404.90 25.30Q400.92 21.27 393.33 21.27L393.33 21.27L386.20 21.27L386.20 51.58L393.33 51.58ZM430.30 54.96Q426.71 54.96 423.98 53.72Q421.25 52.47 419.69 50.23Q418.13 48.00 418.03 45.24L418.03 45.24L421.88 45.24Q422.14 47.89 424.22 49.89Q426.30 51.90 430.30 51.90L430.30 51.90Q433.99 51.90 436.15 50.00Q438.31 48.10 438.31 45.19L438.31 45.19Q438.31 42.85 437.11 41.42Q435.92 39.99 434.15 39.29Q432.38 38.58 429.26 37.75L429.26 37.75Q425.62 36.76 423.49 35.83Q421.36 34.89 419.85 32.92Q418.34 30.94 418.34 27.56L418.34 27.56Q418.34 24.75 419.80 22.54Q421.25 20.33 423.90 19.08Q426.56 17.84 429.99 17.84L429.99 17.84Q435.03 17.84 438.13 20.31Q441.22 22.78 441.69 26.68L441.69 26.68L437.74 26.68Q437.37 24.44 435.29 22.70Q433.21 20.96 429.68 20.96L429.68 20.96Q426.40 20.96 424.22 22.70Q422.03 24.44 422.03 27.46L422.03 27.46Q422.03 29.74 423.23 31.15Q424.42 32.55 426.22 33.28Q428.01 34.01 431.08 34.84L431.08 34.84Q434.62 35.83 436.80 36.79Q438.98 37.75 440.49 39.73Q442 41.70 442 45.03L442 45.03Q442 47.58 440.65 49.87Q439.30 52.16 436.64 53.56Q433.99 54.96 430.30 54.96L430.30 54.96Z" transform="translate(0, 0)"></path></g></svg></svg>